<?xml version="1.0" standalone="no"?>
<!DOCTYPE svg PUBLIC "-//W3C//DTD SVG 20010904//EN"
 "http://www.w3.org/TR/2001/REC-SVG-20010904/DTD/svg10.dtd">
<svg version="1.0" xmlns="http://www.w3.org/2000/svg"
 width="626.000000pt" height="440.000000pt" viewBox="0 0 626.000000 440.000000"
 preserveAspectRatio="xMidYMid meet">

<g transform="translate(0.000000,440.000000) scale(0.100000,-0.100000)"
fill="#000000" stroke="none">
<path d="M0 3275 l0 -1125 853 0 c468 0 961 -3 1095 -7 218 -6 244 -8 252 -24
6 -10 7 -24 4 -32 -3 -8 0 -18 7 -22 9 -6 11 5 7 43 -4 43 -2 51 14 55 10 3
18 1 18 -3 0 -11 43 1 52 14 4 6 8 -15 8 -46 0 -31 3 -59 8 -61 9 -6 6 108 -3
123 -5 8 -12 5 -21 -7 -13 -17 -15 -17 -28 0 -12 15 -14 16 -20 2 -9 -24 -33
-17 -40 11 -4 15 -5 29 -2 32 9 8 205 8 199 0 -2 -5 8 -3 24 3 19 7 29 7 31 0
3 -8 10 -8 23 0 15 7 24 7 34 -1 9 -8 15 -8 20 0 3 5 17 7 31 4 22 -6 24 -3
24 28 0 19 3 63 6 97 6 55 9 61 30 61 42 0 54 -11 54 -46 0 -25 -4 -34 -17
-35 -13 0 -11 -3 7 -10 13 -6 38 -9 55 -7 29 3 30 3 26 -42 -3 -51 -11 -63
-37 -58 -14 2 -20 14 -22 46 -2 23 -8 42 -13 42 -6 0 -9 -10 -7 -22 2 -18 -3
-24 -22 -27 -23 -3 -24 -4 -5 -12 16 -7 15 -8 -10 -6 -24 2 -31 -2 -33 -20 -3
-20 1 -23 35 -23 28 0 34 -3 23 -10 -10 -6 -11 -10 -2 -10 8 0 12 -22 12 -75
0 -63 -3 -75 -16 -75 -9 0 -22 7 -29 17 -8 11 -14 13 -19 5 -4 -7 -2 -12 3
-12 6 0 11 -5 11 -11 0 -5 -4 -8 -9 -4 -5 3 -12 -7 -14 -22 -2 -16 -6 4 -7 42
-2 39 -4 84 -5 101 -2 34 -24 80 -26 54 0 -8 -2 -28 -3 -43 -1 -16 2 -31 6
-33 4 -3 8 -22 8 -42 l0 -38 -68 2 c-62 2 -68 0 -69 -18 -1 -12 -11 -30 -22
-42 -12 -12 -21 -28 -21 -35 0 -8 -10 -24 -22 -36 -28 -27 -58 -67 -58 -76 0
-4 7 -9 15 -13 8 -3 15 -17 15 -31 0 -34 -53 -58 -135 -60 -40 -1 -78 -10
-112 -26 -61 -28 -66 -46 -30 -100 21 -32 27 -34 92 -40 66 -6 126 -2 290 21
90 12 148 13 140 1 -3 -5 -1 -12 4 -16 13 -7 62 5 56 14 -6 10 48 7 65 -4 9
-6 11 -4 5 5 -4 7 -2 16 6 21 19 12 42 11 34 -1 -3 -5 -1 -10 6 -10 20 0 -24
-29 -43 -30 -10 0 -18 -4 -18 -10 0 -5 -3 -9 -7 -8 -5 0 -15 -2 -23 -5 -99
-41 -364 -62 -555 -43 -83 8 -88 7 -75 -9 11 -13 11 -18 1 -24 -23 -14 26 -21
284 -36 138 -9 277 -20 310 -26 181 -33 206 -39 222 -51 7 -5 17 -7 23 -3 6 4
16 2 23 -3 11 -9 106 -22 193 -26 56 -2 18 17 -73 38 -76 18 -103 27 -133 45
-50 30 -95 44 -174 54 -91 12 -122 31 -69 42 57 11 154 68 193 112 36 41 39
43 49 25 14 -27 76 -55 104 -46 12 3 32 16 44 27 22 20 23 27 23 188 0 136 3
170 15 183 8 8 15 24 15 34 0 26 18 32 50 15 15 -7 59 -13 107 -13 83 0 105
-9 83 -35 -10 -12 -10 -15 0 -15 7 0 20 -10 30 -23 11 -13 39 -34 64 -47 39
-21 49 -23 78 -13 18 6 57 12 87 12 30 1 62 6 72 12 12 6 26 4 46 -8 41 -23
81 -11 97 29 13 30 14 31 25 10 43 -81 126 -20 118 87 l-4 48 69 0 c38 -1 68
-5 68 -11 0 -5 3 -6 7 -2 4 3 13 -4 20 -16 l12 -23 1 27 c0 20 4 26 15 22 8
-4 15 -16 16 -28 0 -19 1 -19 12 -4 10 15 12 15 21 -4 6 -12 18 -24 26 -26 11
-4 10 1 -4 17 -11 11 -15 21 -10 21 27 0 34 -28 34 -133 0 -102 1 -109 21
-114 20 -6 21 -11 15 -72 -3 -36 -3 -70 1 -76 14 -18 77 -44 101 -41 13 1 35
15 49 30 18 20 31 26 47 21 36 -10 64 -12 76 -5 17 10 27 75 36 218 4 78 11
126 20 132 18 16 24 0 26 -73 1 -54 5 -66 20 -70 24 -7 25 -92 1 -126 -9 -14
-18 -36 -19 -50 -9 -89 -46 -157 -88 -163 -14 -2 -22 -11 -24 -29 -2 -15 -14
-37 -28 -50 -15 -14 -24 -34 -24 -54 0 -31 -2 -32 -100 -64 -55 -18 -103 -37
-106 -42 -3 -5 -13 -9 -23 -9 -22 0 -49 -38 -58 -80 -5 -26 -3 -30 16 -30 36
0 84 -25 122 -63 47 -48 95 -67 171 -67 93 -1 497 30 538 41 19 5 55 14 78 19
33 9 56 25 95 67 82 90 94 100 146 126 17 8 37 41 66 107 72 167 139 283 189
329 14 14 26 28 26 33 0 9 87 137 147 216 46 61 83 146 84 195 0 27 2 29 9 12
5 -11 9 -35 9 -53 1 -22 5 -31 12 -26 7 4 9 0 6 -12 -3 -11 -9 -37 -12 -59
l-6 -40 26 54 c14 29 25 61 25 70 0 10 9 3 21 -17 18 -27 21 -43 16 -83 -3
-27 -3 -49 1 -49 7 0 13 35 15 88 1 22 3 22 144 22 l143 0 0 1155 0 1155
-1210 0 -1210 0 -11 -27 c-6 -16 -13 -55 -15 -88 -7 -101 -9 -108 -21 -112 -7
-3 -15 10 -19 31 -3 20 -10 36 -14 36 -9 0 -5 134 5 150 4 7 -604 10 -1879 10
l-1886 0 0 -1125z m3810 829 c0 -8 -4 -12 -10 -9 -5 3 -10 10 -10 16 0 5 5 9
10 9 6 0 10 -7 10 -16z m1875 -484 c38 -9 20 -16 -57 -24 -47 -5 -58 -3 -58 8
0 22 58 30 115 16z m-765 -19 c0 -17 -10 -21 -81 -27 -99 -8 -130 -27 -111
-68 10 -22 9 -31 -4 -51 -9 -14 -23 -25 -30 -25 -44 0 -21 109 33 158 34 30
40 32 115 32 70 0 78 -2 78 -19z m-2076 -276 c-4 -8 -8 -15 -10 -15 -2 0 -4 7
-4 15 0 8 4 15 10 15 5 0 7 -7 4 -15z m841 -74 c-8 -23 -17 -65 -21 -94 -4
-29 -10 -57 -15 -63 -5 -6 -18 -51 -29 -100 -32 -140 -53 -216 -66 -249 -18
-42 -17 -29 6 72 60 254 91 380 100 395 6 10 10 29 10 42 0 34 11 59 22 48 5
-5 2 -26 -7 -51z m-846 -3 c-5 -17 -5 -36 -1 -42 23 -32 -13 -247 -56 -331
-11 -22 -18 -43 -15 -47 6 -11 -46 -180 -62 -198 -7 -8 -16 -25 -20 -38 -4
-13 -9 -22 -11 -19 -5 5 30 163 65 295 16 59 44 178 62 264 18 86 36 155 40
152 4 -2 3 -18 -2 -36z m2984 -455 c4 -3 7 -9 5 -15 -4 -12 -287 -18 -328 -8
-14 4 -27 14 -28 24 -4 17 7 17 170 11 95 -4 177 -10 181 -12z m-2493 -61 c0
-4 -9 -8 -19 -8 -11 0 -17 4 -15 8 3 4 12 8 20 8 8 0 14 -4 14 -8z m-61 -53
c-21 -39 -92 -110 -131 -130 -21 -11 -38 -15 -38 -10 0 11 161 161 173 161 4
0 3 -10 -4 -21z m2476 -6 c54 -7 60 -10 63 -33 3 -26 2 -26 -60 -24 -34 1 -70
-3 -80 -9 -12 -8 -24 -7 -43 1 -14 7 -33 12 -43 12 -9 0 -36 7 -59 16 -42 16
-56 38 -31 46 18 6 182 0 253 -9z m-2214 -53 c24 0 3 -30 -57 -84 -72 -64
-201 -166 -210 -166 -3 0 27 33 68 73 40 40 98 105 128 145 43 57 56 68 58 52
2 -11 8 -20 13 -20z m-522 19 c20 -7 31 -18 31 -30 0 -10 -4 -19 -10 -19 -5 0
-10 5 -10 10 0 6 -7 10 -15 10 -8 0 -15 -5 -15 -11 0 -5 -4 -7 -10 -4 -5 3
-10 0 -10 -9 0 -8 -15 -24 -34 -36 -19 -11 -37 -31 -39 -43 -3 -12 -4 7 -3 43
1 64 2 65 36 82 41 21 39 21 79 7z m1376 -2 c22 -17 11 -41 -16 -34 -11 3 -19
1 -19 -4 0 -9 -60 -43 -65 -37 -1 2 -8 13 -14 26 -11 20 -10 27 5 43 20 23 81
26 109 6z m-1527 -71 c2 -10 0 -16 -6 -12 -5 3 -17 -3 -27 -14 -10 -11 -24
-20 -31 -20 -7 0 -15 -6 -17 -12 -3 -7 -6 5 -6 28 -1 50 4 56 49 52 25 -2 36
-8 38 -22z m1680 5 c4 -11 4 -22 0 -19 -2 1 -18 -7 -36 -17 -33 -20 -34 -20
-48 -1 -8 11 -14 29 -14 39 0 17 5 19 47 14 26 -3 49 -10 51 -16z m-281 -63
c-3 -8 -6 -5 -6 6 -1 11 2 17 5 13 3 -3 4 -12 1 -19z m1423 -8 c0 -5 -2 -10
-4 -10 -3 0 -8 5 -11 10 -3 6 -1 10 4 10 6 0 11 -4 11 -10z m-2783 -122 c-2
-18 -4 -4 -4 32 0 36 2 50 4 33 2 -18 2 -48 0 -65z m1793 22 c-8 -5 -28 -9
-45 -9 -29 1 -29 1 -5 9 14 4 34 8 45 9 16 1 17 -1 5 -9z m-410 -75 c0 -8 -2
-15 -4 -15 -2 0 -6 7 -10 15 -3 8 -1 15 4 15 6 0 10 -7 10 -15z m380 -20 c-55
-29 -75 -31 -77 -6 -2 21 17 27 87 29 l35 1 -45 -24z m23 -29 c24 -19 21 -36
-7 -36 -28 0 -40 14 -32 35 7 18 16 18 39 1z m-413 -16 c0 -5 -13 -10 -30 -10
-16 0 -30 5 -30 10 0 6 14 10 30 10 17 0 30 -4 30 -10z m-1179 -22 c-1 -5 -1
-17 -1 -28 0 -11 -7 -20 -15 -20 -10 0 -15 10 -15 31 0 22 4 30 16 27 8 -2 15
-6 15 -10z m69 -23 c0 -8 -5 -15 -11 -15 -5 0 -7 -5 -3 -12 4 -6 3 -8 -4 -4
-15 9 -11 46 5 46 7 0 13 -7 13 -15z m83 -4 c-21 -18 -21 -18 -2 -34 10 -9 19
-13 19 -9 0 4 5 -1 11 -11 13 -23 4 -34 -14 -18 -12 9 -14 5 -11 -23 2 -26 -1
-33 -12 -29 -8 3 -11 10 -7 17 4 6 0 6 -9 -2 -20 -16 -26 -7 -24 40 1 20 -1
35 -4 33 -3 -2 -5 10 -5 26 0 27 2 29 40 29 40 -1 40 -1 18 -19z m916 13 c56
-11 33 -19 -69 -22 -102 -4 -145 2 -135 19 7 10 156 12 204 3z m-1416 -33 c9
-1 9 -37 1 -79 -5 -24 -11 -29 -30 -28 -13 0 -22 6 -21 11 2 6 0 23 -4 40 -15
53 -3 66 54 56z m765 -5 c-7 -8 -15 -12 -17 -11 -5 6 10 25 20 25 5 0 4 -6 -3
-14z m596 -8 c-3 -4 7 -10 21 -14 34 -8 32 -32 -2 -34 -88 -3 -93 -4 -87 -25
4 -18 4 -18 -6 -2 -14 22 -55 24 -46 1 4 -9 2 -13 -5 -8 -7 4 -21 7 -32 8 -19
1 -54 46 -56 71 -1 6 40 10 108 10 60 0 107 -3 105 -7z m91 2 c3 -5 1 -10 -4
-10 -6 0 -11 5 -11 10 0 6 2 10 4 10 3 0 8 -4 11 -10z m-1095 -20 c0 -13 -7
-20 -20 -20 -13 0 -20 7 -20 20 0 13 7 20 20 20 13 0 20 -7 20 -20z m1132 -22
c-8 -8 -12 -9 -12 -1 0 6 -3 20 -6 30 -7 17 -6 17 12 1 14 -14 16 -20 6 -30z
m486 15 c-9 -10 -13 -23 -11 -30 2 -7 0 -20 -6 -31 -7 -13 -7 -22 1 -30 16
-16 0 -32 -32 -32 -27 0 -28 1 -23 42 2 24 10 46 16 50 8 5 6 8 -5 8 -11 0
-18 8 -18 20 0 17 7 20 47 20 43 0 45 -1 31 -17z m-1555 -8 c1 -5 -6 -11 -15
-13 -11 -2 -18 3 -18 13 0 17 30 18 33 0z m1027 -16 c0 -18 -2 -19 -15 -5 -8
8 -15 17 -15 20 0 3 7 6 15 6 9 0 15 -9 15 -21z m-1100 -19 c0 -5 -4 -10 -9
-10 -6 0 -13 5 -16 10 -3 6 1 10 9 10 9 0 16 -4 16 -10z m1530 -14 c0 -2 -7
-6 -15 -10 -8 -3 -15 -1 -15 4 0 6 7 10 15 10 8 0 15 -2 15 -4z m-1871 -108
c1 -23 -3 -28 -24 -28 -20 0 -25 5 -25 24 0 14 5 28 10 31 16 10 12 25 -5 19
-8 -4 -15 -3 -15 0 0 4 10 10 23 15 24 9 34 -7 36 -61z m1941 0 c0 -6 -12 -22
-27 -36 -29 -27 -39 -19 -29 23 8 31 56 43 56 13z m-2036 -30 c-3 -5 -10 -6
-15 -3 -5 4 -12 -1 -15 -9 -8 -22 -24 -20 -24 2 0 14 8 18 29 18 17 0 28 -3
25 -8z m1608 -17 c2 -17 1 -28 -4 -25 -8 5 -12 54 -4 54 2 0 6 -13 8 -29z
m-1642 -37 c0 5 6 3 13 -3 8 -6 17 -8 20 -4 4 3 7 -1 7 -9 0 -10 -11 -17 -30
-20 -28 -4 -30 -2 -30 26 0 24 3 27 10 16 5 -8 10 -11 10 -6z m201 -261 c-10
-4 -10 -7 -2 -13 9 -5 8 -10 -4 -20 -13 -11 -14 -10 -9 5 5 11 4 16 -3 12 -5
-3 -10 0 -10 6 0 7 10 13 21 14 12 1 15 -1 7 -4z"/>
<path d="M2352 2188 c-7 -7 -12 -17 -12 -22 0 -6 5 -4 10 4 7 11 10 1 10 -35
0 -27 5 -57 10 -65 6 -10 7 3 3 39 -5 46 -4 53 9 49 8 -4 15 0 15 8 0 7 -4 11
-8 8 -4 -2 -12 2 -16 11 -7 12 -12 12 -21 3z"/>
<path d="M2410 2142 c0 -31 5 -64 10 -72 7 -10 8 1 4 39 -6 48 -5 54 9 48 23
-9 21 5 -3 26 -20 17 -20 16 -20 -41z"/>
<path d="M2459 2190 c-3 -8 1 -42 8 -75 l13 -60 -5 53 c-3 44 -2 53 10 48 8
-3 15 -1 15 5 0 6 10 8 23 5 12 -3 16 -3 10 0 -7 3 -13 13 -13 22 -1 15 -2 15
-11 0 -5 -10 -16 -18 -24 -18 -7 0 -15 8 -17 18 -3 14 -5 14 -9 2z"/>
<path d="M2256 2103 c9 -52 14 -54 14 -5 0 23 -5 42 -10 42 -7 0 -8 -14 -4
-37z"/>
<path d="M2514 2124 c3 -9 6 -27 6 -40 0 -13 3 -24 8 -24 4 0 6 18 4 40 -2 22
-9 40 -14 40 -6 0 -7 -7 -4 -16z"/>
<path d="M2291 2104 c0 -11 3 -14 6 -6 3 7 2 16 -1 19 -3 4 -6 -2 -5 -13z"/>
<path d="M2620 2090 c-9 -6 -10 -10 -3 -10 6 0 15 5 18 10 8 12 4 12 -15 0z"/>
<path d="M2207 1773 c-15 -14 -6 -24 20 -21 34 4 43 28 11 28 -14 0 -28 -3
-31 -7z"/>
<path d="M5555 1533 c-29 -7 -55 -33 -55 -54 0 -23 66 -34 168 -26 73 6 112
23 98 45 -11 19 -170 45 -211 35z"/>
<path d="M4933 1039 c12 -7 27 -7 45 0 25 9 24 9 -18 10 -36 0 -41 -2 -27 -10z"/>
<path d="M5192 1034 c-18 -8 -30 -19 -27 -24 10 -16 28 -11 60 15 33 28 19 32
-33 9z"/>
<path d="M4158 999 c-6 -38 7 -45 107 -64 194 -37 376 -55 577 -55 112 0 219
-4 238 -10 19 -5 57 -10 84 -10 26 0 69 -7 95 -15 152 -49 266 -68 431 -71
164 -4 245 -13 350 -41 70 -19 82 -21 158 -27 l62 -4 0 28 c0 25 -3 28 -50 33
-28 3 -72 3 -98 0 -35 -4 -58 -1 -80 11 -18 9 -33 16 -34 16 -3 -1 -24 5 -53
15 -11 4 -36 9 -55 11 -19 2 -46 7 -60 10 -13 3 -56 10 -95 15 -38 5 -90 13
-115 18 -25 5 -92 18 -151 29 -58 11 -141 29 -185 40 -43 11 -97 23 -119 27
-22 4 -48 14 -57 22 -15 13 -29 14 -95 5 -43 -6 -139 -10 -213 -8 -74 2 -146
4 -160 4 -14 1 -54 1 -90 2 -59 1 -168 15 -305 40 -79 14 -82 13 -87 -21z"/>
</g>
</svg>
